<svg xmlns="http://www.w3.org/2000/svg" viewBox="0 0 1400 1400" width="1400" height="1400">
  <rect width="1400" height="1400" rx="100" fill="#0C0C0E"/>
  <g transform="translate(0,1400) scale(0.1,-0.1)" fill="#EAEAEE" stroke="none">
    <path d="M4789 11685 l-2144 -1234 -3 -3324 -2 -3324 490 -301 c269 -166 492
-302 495 -302 3 0 6 1504 7 3341 l3 3342 2134 1228 c1174 676 2138 1232 2142
1236 6 6 -797 477 -946 555 l-32 17 -2144 -1234z M6528 10676 l-2138 -1231 0
-3360 0 -3360 484 -298 c266 -163 489 -297 495 -297 8 0 11 875 11 3373 l0
3373 2093 1204 c1150 662 2116 1218 2144 1236 l53 31 -490 281 c-269 155 -495
282 -502 281 -7 -1 -975 -555 -2150 -1233z M8278 9672 l-2148 -1237 0 -3391 0
-3390 486 -300 c268 -164 490 -301 495 -302 5 -2 9 1461 9 3405 l0 3410 1619
931 c890 513 1622 932 1625 932 3 0 6 -840 6 -1867 l-1 -1868 -1244 -715
-1245 -715 0 -567 c0 -313 2 -568 4 -568 2 0 784 449 1737 998 l1734 997 2
2475 3 2475 -461 265 c-254 146 -464 266 -468 267 -3 1 -972 -555 -2153 -1235z"/>
  </g>
</svg>