<svg xmlns="http://www.w3.org/2000/svg" viewBox="0 0 1400 1400" width="1400" height="1400">
  <rect width="1400" height="1400" rx="100" fill="#0C0C0E"/>
  <g transform="translate(0,1400) scale(0.1,-0.1)" fill="#EAEAEE" stroke="none">
    <path d="M4720 11752 l-2165 -1247 -2 -3365 -2 -3365 489 -300 c269 -165 494
-301 499 -303 8 -3 11 1017 11 3375 l1 3378 2166 1245 c1191 685 2165 1250
2165 1255 0 9 -955 565 -982 571 -8 2 -989 -558 -2180 -1244z M6480 10731
l-2165 -1247 -3 -3395 -2 -3395 499 -307 c274 -169 501 -307 505 -307 3 0 6
1536 6 3413 l0 3414 2170 1249 c1651 950 2167 1251 2157 1260 -24 22 -976 564
-989 563 -7 0 -987 -562 -2178 -1248z M8248 9682 l-2167 -1247 -1 -3397 0
-3396 488 -301 c268 -165 495 -303 505 -307 16 -6 17 190 19 3411 l3 3416
2167 1247 c1191 686 2163 1250 2160 1254 -16 15 -985 568 -995 567 -7 0 -987
-561 -2179 -1247z M9935 6174 c-814 -469 -1616 -931 -1782 -1026 l-302 -173
-1 -578 0 -578 23 12 c18 10 1106 636 3142 1808 l410 236 3 578 c1 317 -1 577
-5 576 -5 -1 -674 -385 -1488 -855z"/>
  </g>
</svg>